<?xml version="1.0" encoding="UTF-8" standalone="no"?>
<!DOCTYPE svg PUBLIC "-//W3C//DTD SVG 1.1//EN" "http://www.w3.org/Graphics/SVG/1.1/DTD/svg11.dtd">
<svg width="100%" height="100%" viewBox="0 0 958 258" version="1.1" xmlns="http://www.w3.org/2000/svg" xmlns:xlink="http://www.w3.org/1999/xlink" xml:space="preserve" xmlns:serif="http://www.serif.com/" style="fill-rule:evenodd;clip-rule:evenodd;stroke-linejoin:round;stroke-miterlimit:2;">
    <path d="M246.667,14.333C246.222,14.778 247.278,14.722 247.333,14.667C247.778,14.222 246.722,14.278 246.667,14.333Z" style="fill:rgb(234,208,146);fill-rule:nonzero;"/>
    <path d="M248,14.464C233.558,17.081 224.922,33.473 231.688,47C236.584,56.788 247.616,60.868 258,58.61C272.119,55.539 279.143,38.536 272.558,26C267.945,17.22 257.575,12.73 248,14.464Z" style="fill:rgb(225,193,105);fill-rule:nonzero;"/>
    <path d="M243,15L244,16L243,15Z" style="fill:rgb(245,227,179);fill-rule:nonzero;"/>
    <path d="M264,17L265,18L264,17Z" style="fill:rgb(227,206,179);fill-rule:nonzero;"/>
    <path d="M9.333,19.667C9.278,19.722 9.222,20.778 9.667,20.333C9.722,20.278 9.778,19.222 9.333,19.667Z" style="fill:rgb(249,229,158);fill-rule:nonzero;"/>
    <path d="M10,20C11.189,26.904 14.605,33.514 17.2,40C21.743,51.357 26.325,62.695 30.989,74C45.244,108.554 59.12,143.295 73,178C77.942,190.358 82.913,202.698 87.989,215C89.512,218.69 90.9,226.378 95.225,227.682C102.351,229.831 112.567,228.003 120,228C122.8,227.999 126.796,228.657 128.925,226.397C132.923,222.153 134.651,213.372 136.8,208C142.276,194.311 147.923,180.691 153.4,167C166.618,133.954 180.181,101.046 193.4,68C196.867,59.332 200.192,50.589 203.85,42C206.854,34.948 210.695,27.58 212,20L186,20C183.831,20 181.496,19.832 179.236,20C177.048,20.163 174.932,20.641 173.105,21.894C168.834,24.821 167.23,30.427 165.4,35C161.547,44.624 157.933,54.335 154.189,64C145.933,85.313 137.702,106.637 129.576,128C122.78,145.865 115.655,163.154 112,182C106.999,172.471 105.566,161.046 101.551,151C90.016,122.141 79.482,92.884 68,64C64.173,54.373 60.583,44.65 56.81,35C54.996,30.361 53.223,24.697 48.896,21.742C45.263,19.261 40.167,20 36,20L10,20Z" style="fill:rgb(225,193,105);fill-rule:nonzero;"/>
    <path d="M268,20L269,21L268,20Z" style="fill:rgb(228,213,201);fill-rule:nonzero;"/>
    <path d="M430,20L430,228L464,228L464,78C481.359,107.741 496.441,138.877 513.139,169C517.166,176.265 520.805,183.752 524.862,191C527.091,194.982 529.571,199.323 534.004,201.142C541.579,204.25 554.233,202.793 559.046,195.96C565.466,186.844 570.151,175.894 575.258,166C583.055,150.896 591.461,136.106 599.258,121C606.225,107.504 616.713,93.573 621,79C622.692,84.725 622,91.06 622,97L622,228L656,228L656,20L630,20C626.284,20 621.444,19.227 618.043,21.028C614.061,23.137 611.792,28.19 609.781,32C605.385,40.325 601.198,48.798 596.576,57C582.109,82.666 568.53,108.942 554.781,135C550.629,142.869 547.388,151.289 543,159C538.066,144.505 529.892,131.469 522.781,118C511.673,96.962 500.743,75.688 489,55C484.52,47.108 480.541,38.934 476.139,31C474.274,27.638 472.407,23.125 468.895,21.179C465.259,19.164 460.002,20 456,20L430,20Z" style="fill:rgb(112,182,229);fill-rule:nonzero;"/>
    <path d="M468,20L469,21L468,20Z" style="fill:rgb(186,227,249);fill-rule:nonzero;"/>
    <path d="M173,21L174,22L173,21Z" style="fill:rgb(249,233,179);fill-rule:nonzero;"/>
    <path d="M269,21L270,22L269,21Z" style="fill:rgb(227,213,201);fill-rule:nonzero;"/>
    <path d="M616,21L617,22L616,21Z" style="fill:rgb(186,198,230);fill-rule:nonzero;"/>
    <path d="M615,22L616,23L615,22Z" style="fill:rgb(190,198,230);fill-rule:nonzero;"/>
    <path d="M52,25L53,26L52,25Z" style="fill:rgb(225,206,193);fill-rule:nonzero;"/>
    <path d="M613,25L614,26L613,25Z" style="fill:rgb(199,201,230);fill-rule:nonzero;"/>
    <path d="M53,27L54,28L53,27Z" style="fill:rgb(225,199,179);fill-rule:nonzero;"/>
    <path d="M168,27L169,28L168,27Z" style="fill:rgb(252,237,174);fill-rule:nonzero;"/>
    <path d="M612,27L613,28L612,27Z" style="fill:rgb(190,196,229);fill-rule:nonzero;"/>
    <path d="M474,28L475,29L474,28Z" style="fill:rgb(181,234,253);fill-rule:nonzero;"/>
    <path d="M274.333,30.667C274.278,30.722 274.222,31.778 274.667,31.333C274.722,31.278 274.778,30.222 274.333,30.667Z" style="fill:rgb(225,197,169);fill-rule:nonzero;"/>
    <path d="M166,32L167,33L166,32Z" style="fill:rgb(253,239,179);fill-rule:nonzero;"/>
    <path d="M229,32L229,35C229.696,33.446 229.696,33.554 229,32Z" style="fill:rgb(252,237,174);fill-rule:nonzero;"/>
    <path d="M275,33L275,41C276.161,38.23 276.161,35.77 275,33Z" style="fill:rgb(234,233,237);fill-rule:nonzero;"/>
    <path d="M229,35L229,39C229.71,37.241 229.71,36.76 229,35Z" style="fill:rgb(246,217,134);fill-rule:nonzero;"/>
    <path d="M871,35L872,36L871,35Z" style="fill:rgb(186,204,233);fill-rule:nonzero;"/>
    <path d="M859,107L859,172C859,184.192 857.589,197.385 862.119,209C873.612,238.472 918.032,233.975 938,217C934.976,211.319 929.848,198.835 922.985,197.336C913.873,195.346 905.645,206.513 897.699,195.895C893.007,189.626 894,181.336 894,174L894,129C894,126.814 894.169,123.281 894,119.653C893.774,114.814 893.4,109.807 895.603,107.603C898.029,105.177 902.899,106 906,106C914.826,105.999 924.376,104.947 933,107L933,81L894,81L894,35C891.922,35 889.335,34.771 886.6,34.582C885.085,34.477 883.524,34.384 881.98,34.349C877.861,34.257 873.859,34.577 871.148,36.179C867.61,38.27 867.463,43.386 866.651,47C865.176,53.561 863.955,60.347 863.001,67C862.477,70.656 862.286,75.627 860.062,78.722C855.387,85.225 844.255,80.593 838.603,85.175C836.272,87.066 837,91.366 837,94C837,97.092 836.489,101.007 838.179,103.772C841.55,109.285 853.492,107 859,107Z" style="fill:rgb(112,182,229);fill-rule:nonzero;"/>
    <path d="M229,39L229,42C229.696,40.446 229.696,40.554 229,39Z" style="fill:rgb(252,235,174);fill-rule:nonzero;"/>
    <path d="M605,40L606,41L605,40Z" style="fill:rgb(199,201,230);fill-rule:nonzero;"/>
    <path d="M867.333,40.667C867.278,40.722 867.222,41.778 867.667,41.333C867.722,41.278 867.778,40.222 867.333,40.667Z" style="fill:rgb(219,211,233);fill-rule:nonzero;"/>
    <path d="M481,41L482,42L481,41Z" style="fill:rgb(181,234,253);fill-rule:nonzero;"/>
    <path d="M203.333,42.667C203.278,42.722 203.222,43.778 203.667,43.333C203.722,43.278 203.778,42.222 203.333,42.667Z" style="fill:rgb(232,227,233);fill-rule:nonzero;"/>
    <path d="M274.333,42.667C274.278,42.722 274.222,43.778 274.667,43.333C274.722,43.278 274.778,42.222 274.333,42.667Z" style="fill:rgb(230,221,226);fill-rule:nonzero;"/>
    <path d="M604,42L605,43L604,42Z" style="fill:rgb(186,193,229);fill-rule:nonzero;"/>
    <path d="M867.333,42.667C867.278,42.722 867.222,43.778 867.667,43.333C867.722,43.278 867.778,42.222 867.333,42.667Z" style="fill:rgb(161,185,229);fill-rule:nonzero;"/>
    <path d="M866,45L866,48C866.696,46.446 866.696,46.554 866,45Z" style="fill:rgb(227,216,233);fill-rule:nonzero;"/>
    <path d="M201.333,47.667C201.278,47.722 201.222,48.778 201.667,48.333C201.722,48.278 201.778,47.222 201.333,47.667Z" style="fill:rgb(232,229,233);fill-rule:nonzero;"/>
    <path d="M272,47L273,48L272,47Z" style="fill:rgb(225,206,193);fill-rule:nonzero;"/>
    <path d="M232,48L233,49L232,48Z" style="fill:rgb(252,237,174);fill-rule:nonzero;"/>
    <path d="M270,50L271,51L270,50Z" style="fill:rgb(225,202,183);fill-rule:nonzero;"/>
    <path d="M865,50L865,53C865.696,51.446 865.696,51.554 865,50Z" style="fill:rgb(234,225,236);fill-rule:nonzero;"/>
    <path d="M235,52L236,53L235,52Z" style="fill:rgb(250,233,174);fill-rule:nonzero;"/>
    <path d="M236,53L237,54L236,53Z" style="fill:rgb(251,237,183);fill-rule:nonzero;"/>
    <path d="M598,53L599,54L598,53Z" style="fill:rgb(207,204,231);fill-rule:nonzero;"/>
    <path d="M266,54L267,55L266,54Z" style="fill:rgb(227,208,188);fill-rule:nonzero;"/>
    <path d="M488,54L489,55L488,54Z" style="fill:rgb(181,236,253);fill-rule:nonzero;"/>
    <path d="M597,55L598,56L597,55Z" style="fill:rgb(195,198,230);fill-rule:nonzero;"/>
    <path d="M263,56L264,57L263,56Z" style="fill:rgb(228,208,179);fill-rule:nonzero;"/>
    <path d="M261,57L262,58L261,57Z" style="fill:rgb(230,211,179);fill-rule:nonzero;"/>
    <path d="M596,57L597,58L596,57Z" style="fill:rgb(186,193,229);fill-rule:nonzero;"/>
    <path d="M864,57L864,60C864.696,58.446 864.696,58.554 864,57Z" style="fill:rgb(195,198,230);fill-rule:nonzero;"/>
    <path d="M248,59C250.332,59.984 252.457,59.981 255,60C252.668,59.016 250.543,59.019 248,59Z" style="fill:rgb(240,223,193);fill-rule:nonzero;"/>
    <path d="M863,61L863,64C863.696,62.446 863.696,62.554 863,61Z" style="fill:rgb(230,221,234);fill-rule:nonzero;"/>
    <path d="M495,67L496,68L495,67Z" style="fill:rgb(181,236,253);fill-rule:nonzero;"/>
    <path d="M590,68L591,69L590,68Z" style="fill:rgb(203,204,231);fill-rule:nonzero;"/>
    <path d="M496,69L497,70L496,69Z" style="fill:rgb(171,230,252);fill-rule:nonzero;"/>
    <path d="M862.333,69.667C862.278,69.722 862.222,70.778 862.667,70.333C862.722,70.278 862.778,69.222 862.333,69.667Z" style="fill:rgb(156,185,229);fill-rule:nonzero;"/>
    <path d="M589,70L590,71L589,70Z" style="fill:rgb(195,198,229);fill-rule:nonzero;"/>
    <path d="M861,73L861,76C861.696,74.446 861.696,74.554 861,73Z" style="fill:rgb(199,201,230);fill-rule:nonzero;"/>
    <path d="M377.667,77.333C377.222,77.778 378.278,77.722 378.333,77.667C378.778,77.222 377.722,77.278 377.667,77.333Z" style="fill:rgb(242,225,183);fill-rule:nonzero;"/>
    <path d="M343,105C342.872,98.795 343.072,85.909 337.721,81.742C335.021,79.639 331.213,80.005 328,80L310,80L310,228L345,228L345,162C345,146.719 343.622,133.908 355.093,122.04C362.32,114.564 370.847,111.763 381,112.015C386.111,112.142 395.285,116.533 398.566,110.772C401.804,105.086 401.901,95.425 402.919,89C403.314,86.509 404.062,83.599 402.357,81.419C397.376,75.051 381.751,76.475 375,78.289C360.082,82.3 352.414,93.963 343,105Z" style="fill:rgb(225,193,105);fill-rule:nonzero;"/>
    <path d="M391.667,77.333C391.222,77.778 392.278,77.722 392.333,77.667C392.778,77.222 391.722,77.278 391.667,77.333Z" style="fill:rgb(234,217,179);fill-rule:nonzero;"/>
    <path d="M750,77C753.697,78.552 758.017,78 762,78C758.302,76.449 753.983,77 750,77Z" style="fill:rgb(166,206,237);fill-rule:nonzero;"/>
    <path d="M762,77C763.769,77.779 765.036,77.912 767,78C765.231,77.221 763.964,77.088 762,77Z" style="fill:rgb(227,240,250);fill-rule:nonzero;"/>
    <path d="M742.667,78.333C742.222,78.778 743.278,78.722 743.333,78.667C743.778,78.222 742.722,78.278 742.667,78.333Z" style="fill:rgb(176,206,236);fill-rule:nonzero;"/>
    <path d="M722,158C722.551,184.698 742.919,207.242 771,201.485C778.006,200.049 784.73,197.051 791,193.692C795.343,191.366 800.837,187.872 805.985,189.757C809.739,191.131 812.22,195.005 814.6,198C816.032,199.803 817.971,201.76 818.688,204C820.623,210.047 810.1,215.667 806,218.302C790.283,228.4 768.391,231.668 750,229.829C731.588,227.989 714.087,219.683 702.518,205C690.546,189.806 687,171.858 687,153C687,124.891 696.209,98.453 723,84.97C751.39,70.682 792.95,75.997 810.91,104C818.487,115.815 821,129.172 821,143C821,147.097 822.05,153.369 818.566,156.397C816.28,158.384 812.808,157.994 810,158L722,158ZM723,136L788,136C788,129.139 787.888,122.989 784.031,117C775.366,103.546 753.771,99.272 740,107.482C728.785,114.168 726.025,124.307 723,136Z" style="fill:rgb(112,182,229);"/>
    <path d="M769.667,78.333C769.222,78.778 770.278,78.722 770.333,78.667C770.778,78.222 769.722,78.278 769.667,78.333Z" style="fill:rgb(176,216,242);fill-rule:nonzero;"/>
    <path d="M371,79L372,80L371,79Z" style="fill:rgb(246,229,183);fill-rule:nonzero;"/>
    <path d="M235,80L235,228L269,228L269,130C269,121.35 269.128,112.108 269,102.764C268.893,94.969 268.326,87.029 270,80L235,80Z" style="fill:rgb(225,193,105);fill-rule:nonzero;"/>
    <path d="M270,80L270,228C271.661,224.041 271,219.26 271,215L271,92C271,88.017 271.552,83.699 270,80Z" style="fill:rgb(245,250,255);fill-rule:nonzero;"/>
    <path d="M336,80L337,81L336,80Z" style="fill:rgb(231,213,183);fill-rule:nonzero;"/>
    <path d="M502,80L503,81L502,80Z" style="fill:rgb(181,236,253);fill-rule:nonzero;"/>
    <path d="M403,81L404,82L403,81Z" style="fill:rgb(229,213,193);fill-rule:nonzero;"/>
    <path d="M464,81L464,85C464.71,83.241 464.71,82.76 464,81Z" style="fill:rgb(215,249,255);fill-rule:nonzero;"/>
    <path d="M365,82L366,83L365,82Z" style="fill:rgb(246,227,169);fill-rule:nonzero;"/>
    <path d="M503,82L504,83L503,82Z" style="fill:rgb(171,230,252);fill-rule:nonzero;"/>
    <path d="M621,82L621,87C621.83,84.97 621.83,84.03 621,82Z" style="fill:rgb(245,234,239);fill-rule:nonzero;"/>
    <path d="M849.667,82.333C849.222,82.778 850.278,82.722 850.333,82.667C850.778,82.222 849.722,82.278 849.667,82.333Z" style="fill:rgb(186,211,238);fill-rule:nonzero;"/>
    <path d="M582,83L583,84L582,83Z" style="fill:rgb(203,201,230);fill-rule:nonzero;"/>
    <path d="M726,83L727,84L726,83Z" style="fill:rgb(190,209,234);fill-rule:nonzero;"/>
    <path d="M340.333,84.667C340.278,84.722 340.222,85.778 340.667,85.333C340.722,85.278 340.778,84.222 340.333,84.667Z" style="fill:rgb(225,193,146);fill-rule:nonzero;"/>
    <path d="M403.333,85.667C403.278,85.722 403.222,86.778 403.667,86.333C403.722,86.278 403.778,85.222 403.333,85.667Z" style="fill:rgb(225,202,183);fill-rule:nonzero;"/>
    <path d="M581,85L582,86L581,85Z" style="fill:rgb(190,196,229);fill-rule:nonzero;"/>
    <path d="M617,86L618,87L617,86Z" style="fill:rgb(171,232,252);fill-rule:nonzero;"/>
    <path d="M720,86L721,87L720,86Z" style="fill:rgb(199,211,234);fill-rule:nonzero;"/>
    <path d="M341.333,87.667C341.278,87.722 341.222,88.778 341.667,88.333C341.722,88.278 341.778,87.222 341.333,87.667Z" style="fill:rgb(227,215,214);fill-rule:nonzero;"/>
    <path d="M341.333,89.667C341.278,89.722 341.222,90.778 341.667,90.333C341.722,90.278 341.778,89.222 341.333,89.667Z" style="fill:rgb(225,199,174);fill-rule:nonzero;"/>
    <path d="M470,89L471,90L470,89Z" style="fill:rgb(195,198,230);fill-rule:nonzero;"/>
    <path d="M402,91L402,94C402.696,92.446 402.696,92.554 402,91Z" style="fill:rgb(225,206,193);fill-rule:nonzero;"/>
    <path d="M710,93L711,94L710,93Z" style="fill:rgb(190,201,231);fill-rule:nonzero;"/>
    <path d="M182.333,94.667C182.278,94.722 182.222,95.778 182.667,95.333C182.722,95.278 182.778,94.222 182.333,94.667Z" style="fill:rgb(232,227,233);fill-rule:nonzero;"/>
    <path d="M351,94L352,95L351,94Z" style="fill:rgb(251,235,174);fill-rule:nonzero;"/>
    <path d="M342.333,95.667C342.278,95.722 342.222,96.778 342.667,96.333C342.722,96.278 342.778,95.222 342.333,95.667Z" style="fill:rgb(228,217,214);fill-rule:nonzero;"/>
    <path d="M510,95L511,96L510,95Z" style="fill:rgb(171,230,252);fill-rule:nonzero;"/>
    <path d="M342.333,97.667C342.278,97.722 342.222,98.778 342.667,98.333C342.722,98.278 342.778,97.222 342.333,97.667Z" style="fill:rgb(225,199,174);fill-rule:nonzero;"/>
    <path d="M401,97L401,100C401.696,98.446 401.696,98.554 401,97Z" style="fill:rgb(226,211,201);fill-rule:nonzero;"/>
    <path d="M574,98L575,99L574,98Z" style="fill:rgb(199,201,230);fill-rule:nonzero;"/>
    <path d="M81.333,99.667C81.278,99.722 81.222,100.778 81.667,100.333C81.722,100.278 81.778,99.222 81.333,99.667Z" style="fill:rgb(225,193,146);fill-rule:nonzero;"/>
    <path d="M180.333,99.667C180.278,99.722 180.222,100.778 180.667,100.333C180.722,100.278 180.778,99.222 180.333,99.667Z" style="fill:rgb(233,229,233);fill-rule:nonzero;"/>
    <path d="M807,99L808,100L807,99Z" style="fill:rgb(171,230,251);fill-rule:nonzero;"/>
    <path d="M573,100L574,101L573,100Z" style="fill:rgb(190,196,229);fill-rule:nonzero;"/>
    <path d="M609,101L610,102L609,101Z" style="fill:rgb(171,230,252);fill-rule:nonzero;"/>
    <path d="M702,101L703,102L702,101Z" style="fill:rgb(203,204,231);fill-rule:nonzero;"/>
    <path d="M400.333,102.667C400.278,102.722 400.222,103.778 400.667,103.333C400.722,103.278 400.778,102.222 400.333,102.667Z" style="fill:rgb(225,197,174);fill-rule:nonzero;"/>
    <path d="M477,102L478,103L477,102Z" style="fill:rgb(195,198,230);fill-rule:nonzero;"/>
    <path d="M343.333,103.667C343.278,103.722 343.222,104.778 343.667,104.333C343.722,104.278 343.778,103.222 343.333,103.667Z" style="fill:rgb(229,219,218);fill-rule:nonzero;"/>
    <path d="M608,103L609,104L608,103Z" style="fill:rgb(181,236,253);fill-rule:nonzero;"/>
    <path d="M837,103L838,104L837,103Z" style="fill:rgb(195,198,229);fill-rule:nonzero;"/>
    <path d="M400.333,104.667C400.278,104.722 400.222,105.778 400.667,105.333C400.722,105.278 400.778,104.222 400.333,104.667Z" style="fill:rgb(231,223,226);fill-rule:nonzero;"/>
    <path d="M766.667,104.333C766.222,104.778 767.278,104.722 767.333,104.667C767.778,104.222 766.722,104.278 766.667,104.333Z" style="fill:rgb(161,198,233);fill-rule:nonzero;"/>
    <path d="M699,105L700,106L699,105Z" style="fill:rgb(199,201,230);fill-rule:nonzero;"/>
    <path d="M772,106L773,107L772,106Z" style="fill:rgb(195,211,234);fill-rule:nonzero;"/>
    <path d="M774,107L775,108L774,107Z" style="fill:rgb(186,201,232);fill-rule:nonzero;"/>
    <path d="M399,108L399,111C399.696,109.446 399.696,109.554 399,108Z" style="fill:rgb(225,202,183);fill-rule:nonzero;"/>
    <path d="M517,108L518,109L517,108Z" style="fill:rgb(171,232,252);fill-rule:nonzero;"/>
    <path d="M697,108L698,109L697,108Z" style="fill:rgb(199,198,230);fill-rule:nonzero;"/>
    <path d="M738,108L739,109L738,108Z" style="fill:rgb(176,227,249);fill-rule:nonzero;"/>
    <path d="M778,110L779,111L778,110Z" style="fill:rgb(190,198,230);fill-rule:nonzero;"/>
    <path d="M779,111L780,112L779,111Z" style="fill:rgb(203,204,232);fill-rule:nonzero;"/>
    <path d="M370.667,112.333C370.222,112.778 371.278,112.722 371.333,112.667C371.778,112.222 370.722,112.278 370.667,112.333Z" style="fill:rgb(235,219,188);fill-rule:nonzero;"/>
    <path d="M384,112C385.248,112.685 385.548,112.749 387,113C385.752,112.315 385.452,112.251 384,112Z" style="fill:rgb(241,225,183);fill-rule:nonzero;"/>
    <path d="M780,112L781,113L780,112Z" style="fill:rgb(203,204,231);fill-rule:nonzero;"/>
    <path d="M389.667,113.333C389.222,113.778 390.278,113.722 390.333,113.667C390.778,113.222 389.722,113.278 389.667,113.333Z" style="fill:rgb(237,217,163);fill-rule:nonzero;"/>
    <path d="M566,113L567,114L566,113Z" style="fill:rgb(199,198,230);fill-rule:nonzero;"/>
    <path d="M781,113L782,114L781,113Z" style="fill:rgb(190,198,230);fill-rule:nonzero;"/>
    <path d="M484,115L485,116L484,115Z" style="fill:rgb(195,198,229);fill-rule:nonzero;"/>
    <path d="M565,115L566,116L565,115Z" style="fill:rgb(186,193,229);fill-rule:nonzero;"/>
    <path d="M601,116L602,117L601,116Z" style="fill:rgb(171,230,252);fill-rule:nonzero;"/>
    <path d="M524,121L525,122L524,121Z" style="fill:rgb(171,232,252);fill-rule:nonzero;"/>
    <path d="M352,124L353,125L352,124Z" style="fill:rgb(225,202,183);fill-rule:nonzero;"/>
    <path d="M819.333,124.667C819.278,124.722 819.222,125.778 819.667,125.333C819.722,125.278 819.778,124.222 819.333,124.667Z" style="fill:rgb(176,234,253);fill-rule:nonzero;"/>
    <path d="M689.333,125.667C689.278,125.722 689.222,126.778 689.667,126.333C689.722,126.278 689.778,125.222 689.333,125.667Z" style="fill:rgb(176,191,229);fill-rule:nonzero;"/>
    <path d="M559,126L560,127L559,126Z" style="fill:rgb(207,204,231);fill-rule:nonzero;"/>
    <path d="M491,128L492,129L491,128Z" style="fill:rgb(195,198,229);fill-rule:nonzero;"/>
    <path d="M558,128L559,129L558,128Z" style="fill:rgb(195,198,230);fill-rule:nonzero;"/>
    <path d="M788.333,128.667C788.278,128.722 788.222,129.778 788.667,129.333C788.722,129.278 788.778,128.222 788.333,128.667Z" style="fill:rgb(176,191,229);fill-rule:nonzero;"/>
    <path d="M688.333,129.667C688.278,129.722 688.222,130.778 688.667,130.333C688.722,130.278 688.778,129.222 688.333,129.667Z" style="fill:rgb(176,188,229);fill-rule:nonzero;"/>
    <path d="M557,130L558,131L557,130Z" style="fill:rgb(186,193,229);fill-rule:nonzero;"/>
    <path d="M593,131L594,132L593,131Z" style="fill:rgb(171,230,252);fill-rule:nonzero;"/>
    <path d="M687,133L687,136C687.696,134.446 687.696,134.554 687,133Z" style="fill:rgb(195,198,230);fill-rule:nonzero;"/>
    <path d="M531,134L532,135L531,134Z" style="fill:rgb(176,232,253);fill-rule:nonzero;"/>
    <path d="M821,137L821,142C821.83,139.97 821.83,139.03 821,137Z" style="fill:rgb(215,249,255);fill-rule:nonzero;"/>
    <path d="M686.333,139.667C686.278,139.722 686.222,140.778 686.667,140.333C686.722,140.278 686.778,139.222 686.333,139.667Z" style="fill:rgb(219,211,233);fill-rule:nonzero;"/>
    <path d="M498,141L499,142L498,141Z" style="fill:rgb(195,196,229);fill-rule:nonzero;"/>
    <path d="M551,141L552,142L551,141Z" style="fill:rgb(203,204,231);fill-rule:nonzero;"/>
    <path d="M686.333,141.667C686.278,141.722 686.222,142.778 686.667,142.333C686.722,142.278 686.778,141.222 686.333,141.667Z" style="fill:rgb(181,191,229);fill-rule:nonzero;"/>
    <path d="M550,143L551,144L550,143Z" style="fill:rgb(203,201,230);fill-rule:nonzero;"/>
    <path d="M549,145L550,146L549,145Z" style="fill:rgb(203,204,231);fill-rule:nonzero;"/>
    <path d="M99,146L100,147L99,146Z" style="fill:rgb(225,204,193);fill-rule:nonzero;"/>
    <path d="M161.333,146.667C161.278,146.722 161.222,147.778 161.667,147.333C161.722,147.278 161.778,146.222 161.333,146.667Z" style="fill:rgb(232,227,233);fill-rule:nonzero;"/>
    <path d="M585,146L586,147L585,146Z" style="fill:rgb(166,230,252);fill-rule:nonzero;"/>
    <path d="M821,147L821,152C821.83,149.97 821.83,149.03 821,147Z" style="fill:rgb(215,249,255);fill-rule:nonzero;"/>
    <path d="M539,150L540,151L539,150Z" style="fill:rgb(176,232,253);fill-rule:nonzero;"/>
    <path d="M159.333,151.667C159.278,151.722 159.222,152.778 159.667,152.333C159.722,152.278 159.778,151.222 159.333,151.667Z" style="fill:rgb(232,229,233);fill-rule:nonzero;"/>
    <path d="M505,154L506,155L505,154Z" style="fill:rgb(195,196,229);fill-rule:nonzero;"/>
    <path d="M686,159L686,164C686.83,161.97 686.83,161.03 686,159Z" style="fill:rgb(215,209,232);fill-rule:nonzero;"/>
    <path d="M722,160L722,163C722.696,161.446 722.696,161.554 722,160Z" style="fill:rgb(215,249,255);fill-rule:nonzero;"/>
    <path d="M577,161L578,162L577,161Z" style="fill:rgb(166,230,251);fill-rule:nonzero;"/>
    <path d="M576,163L577,164L576,163Z" style="fill:rgb(176,234,253);fill-rule:nonzero;"/>
    <path d="M722.333,163.667C722.278,163.722 722.222,164.778 722.667,164.333C722.722,164.278 722.778,163.222 722.333,163.667Z" style="fill:rgb(166,227,251);fill-rule:nonzero;"/>
    <path d="M115.333,166.667C115.278,166.722 115.222,167.778 115.667,167.333C115.722,167.278 115.778,166.222 115.333,166.667Z" style="fill:rgb(246,219,134);fill-rule:nonzero;"/>
    <path d="M512,167L513,168L512,167Z" style="fill:rgb(190,196,229);fill-rule:nonzero;"/>
    <path d="M107.333,168.667C107.278,168.722 107.222,169.778 107.667,169.333C107.722,169.278 107.778,168.222 107.333,168.667Z" style="fill:rgb(225,193,152);fill-rule:nonzero;"/>
    <path d="M687.333,168.667C687.278,168.722 687.222,169.778 687.667,169.333C687.722,169.278 687.778,168.222 687.333,168.667Z" style="fill:rgb(195,198,230);fill-rule:nonzero;"/>
    <path d="M114.333,169.667C114.278,169.722 114.222,170.778 114.667,170.333C114.722,170.278 114.778,169.222 114.333,169.667Z" style="fill:rgb(251,233,169);fill-rule:nonzero;"/>
    <path d="M723.333,169.667C723.278,169.722 723.222,170.778 723.667,170.333C723.722,170.278 723.778,169.222 723.333,169.667Z" style="fill:rgb(139,213,248);fill-rule:nonzero;"/>
    <path d="M108.333,171.667C108.278,171.722 108.222,172.778 108.667,172.333C108.722,172.278 108.778,171.222 108.333,171.667Z" style="fill:rgb(225,199,174);fill-rule:nonzero;"/>
    <path d="M113.333,173.667C113.278,173.722 113.222,174.778 113.667,174.333C113.722,174.278 113.778,173.222 113.333,173.667Z" style="fill:rgb(251,233,163);fill-rule:nonzero;"/>
    <path d="M688.333,173.667C688.278,173.722 688.222,174.778 688.667,174.333C688.722,174.278 688.778,173.222 688.333,173.667Z" style="fill:rgb(199,201,230);fill-rule:nonzero;"/>
    <path d="M724.333,173.667C724.278,173.722 724.222,174.778 724.667,174.333C724.722,174.278 724.778,173.222 724.333,173.667Z" style="fill:rgb(139,213,248);fill-rule:nonzero;"/>
    <path d="M109.333,175.667C109.278,175.722 109.222,176.778 109.667,176.333C109.722,176.278 109.778,175.222 109.333,175.667Z" style="fill:rgb(225,193,152);fill-rule:nonzero;"/>
    <path d="M569,176L570,177L569,176Z" style="fill:rgb(166,230,251);fill-rule:nonzero;"/>
    <path d="M110.333,178.667C110.278,178.722 110.222,179.778 110.667,179.333C110.722,179.278 110.778,178.222 110.333,178.667Z" style="fill:rgb(225,204,188);fill-rule:nonzero;"/>
    <path d="M112.333,178.667C112.278,178.722 112.222,179.778 112.667,179.333C112.722,179.278 112.778,178.222 112.333,178.667Z" style="fill:rgb(247,219,134);fill-rule:nonzero;"/>
    <path d="M568,178L569,179L568,178Z" style="fill:rgb(176,234,253);fill-rule:nonzero;"/>
    <path d="M689.333,178.667C689.278,178.722 689.222,179.778 689.667,179.333C689.722,179.278 689.778,178.222 689.333,178.667Z" style="fill:rgb(230,218,234);fill-rule:nonzero;"/>
    <path d="M726,179L727,180L726,179Z" style="fill:rgb(176,234,253);fill-rule:nonzero;"/>
    <path d="M519,180L520,181L519,180Z" style="fill:rgb(190,196,229);fill-rule:nonzero;"/>
    <path d="M729,185L730,186L729,185Z" style="fill:rgb(171,230,252);fill-rule:nonzero;"/>
    <path d="M799.667,189.333C799.222,189.778 800.278,189.722 800.333,189.667C800.778,189.222 799.722,189.278 799.667,189.333Z" style="fill:rgb(171,204,235);fill-rule:nonzero;"/>
    <path d="M561,191L562,192L561,191Z" style="fill:rgb(166,227,251);fill-rule:nonzero;"/>
    <path d="M793,192L794,193L793,192Z" style="fill:rgb(199,211,234);fill-rule:nonzero;"/>
    <path d="M526,193L527,194L526,193Z" style="fill:rgb(190,196,229);fill-rule:nonzero;"/>
    <path d="M560,193L561,194L560,193Z" style="fill:rgb(176,234,253);fill-rule:nonzero;"/>
    <path d="M736,193L737,194L736,193Z" style="fill:rgb(176,230,250);fill-rule:nonzero;"/>
    <path d="M858,193L858,197C858.71,195.24 858.71,194.76 858,193Z" style="fill:rgb(245,234,239);fill-rule:nonzero;"/>
    <path d="M740,196L741,197L740,196Z" style="fill:rgb(171,223,248);fill-rule:nonzero;"/>
    <path d="M897,196L898,197L897,196Z" style="fill:rgb(171,230,252);fill-rule:nonzero;"/>
    <path d="M925,197L926,198L925,197Z" style="fill:rgb(181,232,251);fill-rule:nonzero;"/>
    <path d="M140.333,198.667C140.278,198.722 140.222,199.778 140.667,199.333C140.722,199.278 140.778,198.222 140.333,198.667Z" style="fill:rgb(232,227,233);fill-rule:nonzero;"/>
    <path d="M859.333,198.667C859.278,198.722 859.222,199.778 859.667,199.333C859.722,199.278 859.778,198.222 859.333,198.667Z" style="fill:rgb(186,193,229);fill-rule:nonzero;"/>
    <path d="M899,198L900,199L899,198Z" style="fill:rgb(176,230,250);fill-rule:nonzero;"/>
    <path d="M916,198L917,199L916,198Z" style="fill:rgb(195,209,234);fill-rule:nonzero;"/>
    <path d="M914,199L915,200L914,199Z" style="fill:rgb(186,206,234);fill-rule:nonzero;"/>
    <path d="M532,200L533,201L532,200Z" style="fill:rgb(186,204,232);fill-rule:nonzero;"/>
    <path d="M554,200L555,201L554,200Z" style="fill:rgb(176,225,248);fill-rule:nonzero;"/>
    <path d="M699,200L700,201L699,200Z" style="fill:rgb(190,196,229);fill-rule:nonzero;"/>
    <path d="M749.667,200.333C749.222,200.778 750.278,200.722 750.333,200.667C750.778,200.222 749.722,200.278 749.667,200.333Z" style="fill:rgb(211,234,249);fill-rule:nonzero;"/>
    <path d="M753.667,201.333C753.222,201.778 754.278,201.722 754.333,201.667C754.778,201.222 753.722,201.278 753.667,201.333Z" style="fill:rgb(190,223,244);fill-rule:nonzero;"/>
    <path d="M770.667,201.333C770.222,201.778 771.278,201.722 771.333,201.667C771.778,201.222 770.722,201.278 770.667,201.333Z" style="fill:rgb(161,201,233);fill-rule:nonzero;"/>
    <path d="M138.333,203.667C138.278,203.722 138.222,204.778 138.667,204.333C138.722,204.278 138.778,203.222 138.333,203.667Z" style="fill:rgb(233,229,233);fill-rule:nonzero;"/>
    <path d="M860.333,203.667C860.278,203.722 860.222,204.778 860.667,204.333C860.722,204.278 860.778,203.222 860.333,203.667Z" style="fill:rgb(203,204,231);fill-rule:nonzero;"/>
    <path d="M931,206L932,207L931,206Z" style="fill:rgb(181,234,253);fill-rule:nonzero;"/>
    <path d="M812,213L813,214L812,213Z" style="fill:rgb(176,230,250);fill-rule:nonzero;"/>
    <path d="M864,213L865,214L864,213Z" style="fill:rgb(190,196,229);fill-rule:nonzero;"/>
    <path d="M808,216L809,217L808,216Z" style="fill:rgb(176,225,249);fill-rule:nonzero;"/>
    <path d="M866,216L867,217L866,216Z" style="fill:rgb(195,198,230);fill-rule:nonzero;"/>
    <path d="M717,218L718,219L717,218Z" style="fill:rgb(186,201,232);fill-rule:nonzero;"/>
    <path d="M720,220L721,221L720,220Z" style="fill:rgb(199,209,233);fill-rule:nonzero;"/>
    <path d="M872,222L873,223L872,222Z" style="fill:rgb(190,201,231);fill-rule:nonzero;"/>
    <path d="M786.667,226.333C786.222,226.778 787.278,226.722 787.333,226.667C787.778,226.222 786.722,226.278 786.667,226.333Z" style="fill:rgb(211,236,249);fill-rule:nonzero;"/>
    <path d="M737.667,227.333C737.222,227.778 738.278,227.722 738.333,227.667C738.778,227.222 737.722,227.278 737.667,227.333Z" style="fill:rgb(161,198,233);fill-rule:nonzero;"/>
    <path d="M782.667,227.333C782.222,227.778 783.278,227.722 783.333,227.667C783.778,227.222 782.722,227.278 782.667,227.333Z" style="fill:rgb(199,230,247);fill-rule:nonzero;"/>
    <path d="M741.667,228.333C741.222,228.778 742.278,228.722 742.333,228.667C742.778,228.222 741.722,228.278 741.667,228.333Z" style="fill:rgb(176,206,235);fill-rule:nonzero;"/>
    <path d="M777.667,228.333C777.222,228.778 778.278,228.722 778.333,228.667C778.778,228.222 777.722,228.278 777.667,228.333Z" style="fill:rgb(190,223,244);fill-rule:nonzero;"/>
    <path d="M746.667,229.333C746.222,229.778 747.278,229.722 747.333,229.667C747.778,229.222 746.722,229.278 746.667,229.333Z" style="fill:rgb(203,221,241);fill-rule:nonzero;"/>
    <path d="M770,229C771.248,229.685 771.548,229.749 773,230C771.752,229.315 771.452,229.251 770,229Z" style="fill:rgb(195,223,244);fill-rule:nonzero;"/>
    <path d="M888.667,229.333C888.222,229.778 889.278,229.722 889.333,229.667C889.778,229.222 888.722,229.278 888.667,229.333Z" style="fill:rgb(171,206,235);fill-rule:nonzero;"/>
    <path d="M907.667,229.333C907.222,229.778 908.278,229.722 908.333,229.667C908.777,229.223 907.723,229.277 907.667,229.333Z" style="fill:rgb(166,209,239);fill-rule:nonzero;"/>
    <path d="M909.667,229.333C909.222,229.778 910.278,229.722 910.333,229.667C910.777,229.223 909.722,229.278 909.667,229.333Z" style="fill:rgb(219,238,249);fill-rule:nonzero;"/>
    <path d="M893,230C894.769,230.779 896.036,230.912 898,231C896.231,230.221 894.964,230.088 893,230Z" style="fill:rgb(223,236,248);fill-rule:nonzero;"/>
</svg>
